<svg width="1001" height="499" viewBox="0 0 1001 499" fill="none" xmlns="http://www.w3.org/2000/svg">
<g opacity="0.29827">
<path d="M1008.08 163.448L443.182 -356.858V-747.19L28.1096 -770C24.9043 -762.456 4.36709 -740.714 7.57176 -728.596C11.43 -714.102 30.8387 -718.735 36.4776 -709.409C43.0661 -698.42 31.7291 -653.749 28.3457 -640.86C21.8759 -616.445 7.09676 -596.665 2.82235 -572.25C-4.35982 -531.263 10.1824 -534.53 37.7242 -508.927C84.141 -465.742 46.9244 -420.952 58.6176 -370.223C68.1146 -328.878 109.605 -307.554 124.8 -266.211C136.553 -234.37 152.697 -226.233 177.746 -202.947C177.153 -217.084 164.51 -258.785 188.253 -255.102C211.817 -251.478 202.736 -216.669 207.247 -202.115C211.045 -189.997 237.933 -165.761 215.616 -154.593C208.196 -150.91 187.066 -165.582 178.577 -169.503C184.572 -150.791 180.774 -131.367 190.271 -113.487C201.608 -92.162 213.835 -100.359 228.853 -88.7754C244.344 -76.8355 242.683 -63.1137 235.797 -45.0554C228.615 -26.2247 221.196 -29.1352 232.592 -6.44342C240.843 9.95119 254.85 30.7421 266.9 43.2164C273.904 50.4634 281.502 52.1267 288.506 61.3932C294.323 69.1155 292.067 79.2142 299.012 86.1638C310.883 98.1037 331.006 98.282 340.384 113.904C350.831 131.309 338.96 144.437 369.706 142.833C371.309 177.643 377.897 209.185 377.541 243.994C394.695 250.825 422.414 242.687 440.399 239.063C458.266 263.18 481.355 246.429 501.774 259.558C510.678 265.26 508.837 279.517 514.239 284.506C525.339 294.723 533.529 288.308 547.301 291.872C557.51 294.486 565.404 301.97 575.138 304.703C584.338 307.257 599.475 301.258 606.301 309.396C614.492 319.138 600.78 336.958 613.127 344.799C623.395 351.333 638.115 335.77 648.088 338.027C659.721 340.7 693.079 371.174 701.271 381.212C710.59 392.677 719.969 414.062 725.25 428.793C733.501 451.841 732.373 463.127 749.408 479.998C760.27 490.75 749.942 491.522 767.63 494.67C779.204 496.749 794.518 488.374 806.212 487.067C830.549 484.394 855.122 489.027 879.102 484.453C901.421 480.176 922.729 473.166 945.64 469.899C965.465 467.048 1000.37 469.246 1017.94 459.801C1036.99 449.643 1038.71 426.654 1011.17 430.932C1008.97 416.26 1018.77 396.003 1007.85 385.847C1023.04 365.056 1028.56 350.384 1030.93 324.959C1032 313.792 1032.48 301.436 1038 292.05C1043.4 282.783 1058.59 277.259 1061.56 269.299C1066.13 256.943 1058.83 251.419 1053.25 244.528C1049.69 240.073 1039.54 242.212 1036.63 238.291C1031.23 231.103 1036.57 223.678 1033.6 216.431C1024.94 195.462 1014.61 187.205 1008.08 163.444C1008.26 167.424 1008.44 171.463 1008.2 175.384" stroke="white" stroke-width="2" stroke-linecap="round" stroke-linejoin="round"/>
</g>
<path d="M727.469 87C718.901 110.381 738.969 118.586 755.03 133.868C759.79 138.396 760.244 145.878 755.234 150.403C744.462 160.134 703.619 145.977 706.21 158.806C708.885 172.055 743.416 190.592 744.973 191.86C758.64 202.992 763.091 231.235 755.564 246.719C738.14 282.561 824.548 281.361 801 303C764 337 794.064 384.5 755.564 369.5C738.723 362.939 741 386.5 741 396C741 405.5 738.912 419.789 741 424C744.222 430.5 775 453.5 769 459C762 467.5 749.5 459.5 738 461.5C733.5 462.5 728.5 465 724.5 467.5" stroke="white" stroke-width="2"/>
<path fill-rule="evenodd" clip-rule="evenodd" d="M724.5 474C728.09 474 731 471.09 731 467.5C731 463.91 728.09 461 724.5 461C720.91 461 718 463.91 718 467.5C718 471.09 720.91 474 724.5 474Z" fill="#4AF6CD"/>
<path fill-rule="evenodd" clip-rule="evenodd" d="M661 363C662.657 363 664 361.657 664 360C664 358.343 662.657 357 661 357C659.343 357 658 358.343 658 360C658 361.657 659.343 363 661 363Z" fill="#4AF6CD"/>
<path fill-rule="evenodd" clip-rule="evenodd" d="M574 323C575.657 323 577 321.657 577 320C577 318.343 575.657 317 574 317C572.343 317 571 318.343 571 320C571 321.657 572.343 323 574 323Z" fill="#4AF6CD"/>
<path fill-rule="evenodd" clip-rule="evenodd" d="M365 228C366.657 228 368 226.657 368 225C368 223.343 366.657 222 365 222C363.343 222 362 223.343 362 225C362 226.657 363.343 228 365 228Z" fill="#4AF6CD"/>
<path fill-rule="evenodd" clip-rule="evenodd" d="M729.5 91C733.09 91 736 88.0899 736 84.5C736 80.9101 733.09 78 729.5 78C725.91 78 723 80.9101 723 84.5C723 88.0899 725.91 91 729.5 91Z" fill="#4AF6CD"/>
<path d="M567.414 483.784C568.15 483.784 568.779 483.891 569.302 484.104C569.824 484.307 570.331 484.627 570.822 485.064L569.99 485.992C569.574 485.661 569.163 485.421 568.758 485.272C568.363 485.112 567.936 485.032 567.478 485.032C566.902 485.032 566.427 485.165 566.054 485.432C565.68 485.699 565.494 486.088 565.494 486.6C565.494 486.92 565.558 487.192 565.686 487.416C565.814 487.629 566.048 487.827 566.39 488.008C566.742 488.189 567.248 488.381 567.91 488.584C568.603 488.797 569.179 489.027 569.638 489.272C570.096 489.517 570.464 489.859 570.742 490.296C571.03 490.723 571.174 491.267 571.174 491.928C571.174 492.568 571.014 493.133 570.694 493.624C570.384 494.115 569.931 494.499 569.334 494.776C568.747 495.053 568.048 495.192 567.238 495.192C565.712 495.192 564.464 494.717 563.494 493.768L564.326 492.84C564.774 493.203 565.227 493.48 565.686 493.672C566.144 493.853 566.656 493.944 567.222 493.944C567.904 493.944 568.47 493.779 568.918 493.448C569.366 493.107 569.59 492.616 569.59 491.976C569.59 491.613 569.52 491.315 569.382 491.08C569.243 490.835 569.003 490.616 568.662 490.424C568.331 490.232 567.846 490.04 567.206 489.848C566.075 489.507 565.248 489.096 564.726 488.616C564.203 488.136 563.942 487.485 563.942 486.664C563.942 486.109 564.086 485.613 564.374 485.176C564.672 484.739 565.083 484.397 565.606 484.152C566.139 483.907 566.742 483.784 567.414 483.784ZM576.501 486.376C577.685 486.376 578.602 486.771 579.253 487.56C579.914 488.349 580.245 489.421 580.245 490.776C580.245 491.651 580.095 492.424 579.797 493.096C579.498 493.757 579.066 494.275 578.501 494.648C577.935 495.011 577.263 495.192 576.485 495.192C575.301 495.192 574.378 494.797 573.717 494.008C573.055 493.219 572.725 492.147 572.725 490.792C572.725 489.917 572.874 489.149 573.173 488.488C573.471 487.816 573.903 487.299 574.469 486.936C575.034 486.563 575.711 486.376 576.501 486.376ZM576.501 487.56C575.039 487.56 574.309 488.637 574.309 490.792C574.309 492.936 575.034 494.008 576.485 494.008C577.935 494.008 578.661 492.931 578.661 490.776C578.661 488.632 577.941 487.56 576.501 487.56ZM588.948 495H587.684L587.572 493.688C587.252 494.211 586.884 494.595 586.468 494.84C586.052 495.075 585.546 495.192 584.948 495.192C584.212 495.192 583.636 494.968 583.22 494.52C582.804 494.072 582.596 493.437 582.596 492.616V486.568H584.068V492.456C584.068 493.032 584.17 493.443 584.372 493.688C584.575 493.923 584.906 494.04 585.364 494.04C586.186 494.04 586.89 493.555 587.476 492.584V486.568H588.948V495ZM596.245 494.616C595.69 495 595.061 495.192 594.357 495.192C593.642 495.192 593.082 494.989 592.677 494.584C592.282 494.168 592.085 493.571 592.085 492.792V487.704H590.613V486.568H592.085V484.664L593.557 484.488V486.568H595.557L595.397 487.704H593.557V492.728C593.557 493.165 593.631 493.485 593.781 493.688C593.941 493.88 594.202 493.976 594.565 493.976C594.895 493.976 595.269 493.864 595.685 493.64L596.245 494.616ZM601.738 486.376C602.506 486.376 603.103 486.605 603.53 487.064C603.967 487.523 604.186 488.152 604.186 488.952V495H602.714V489.16C602.714 488.563 602.597 488.141 602.362 487.896C602.138 487.651 601.807 487.528 601.37 487.528C600.933 487.528 600.543 487.656 600.202 487.912C599.861 488.168 599.541 488.531 599.242 489V495H597.77V483.192L599.242 483.032V487.736C599.903 486.829 600.735 486.376 601.738 486.376ZM614.179 483.784C614.915 483.784 615.545 483.891 616.067 484.104C616.59 484.307 617.097 484.627 617.587 485.064L616.755 485.992C616.339 485.661 615.929 485.421 615.523 485.272C615.129 485.112 614.702 485.032 614.243 485.032C613.667 485.032 613.193 485.165 612.819 485.432C612.446 485.699 612.259 486.088 612.259 486.6C612.259 486.92 612.323 487.192 612.451 487.416C612.579 487.629 612.814 487.827 613.155 488.008C613.507 488.189 614.014 488.381 614.675 488.584C615.369 488.797 615.945 489.027 616.403 489.272C616.862 489.517 617.23 489.859 617.507 490.296C617.795 490.723 617.939 491.267 617.939 491.928C617.939 492.568 617.779 493.133 617.459 493.624C617.15 494.115 616.697 494.499 616.099 494.776C615.513 495.053 614.814 495.192 614.003 495.192C612.478 495.192 611.23 494.717 610.259 493.768L611.091 492.84C611.539 493.203 611.993 493.48 612.451 493.672C612.91 493.853 613.422 493.944 613.987 493.944C614.67 493.944 615.235 493.779 615.683 493.448C616.131 493.107 616.355 492.616 616.355 491.976C616.355 491.613 616.286 491.315 616.147 491.08C616.009 490.835 615.769 490.616 615.427 490.424C615.097 490.232 614.611 490.04 613.971 489.848C612.841 489.507 612.014 489.096 611.491 488.616C610.969 488.136 610.707 487.485 610.707 486.664C610.707 486.109 610.851 485.613 611.139 485.176C611.438 484.739 611.849 484.397 612.371 484.152C612.905 483.907 613.507 483.784 614.179 483.784ZM624.066 486.376C624.834 486.376 625.431 486.605 625.858 487.064C626.295 487.523 626.514 488.152 626.514 488.952V495H625.042V489.16C625.042 488.563 624.925 488.141 624.69 487.896C624.466 487.651 624.135 487.528 623.698 487.528C623.261 487.528 622.871 487.656 622.53 487.912C622.189 488.168 621.869 488.531 621.57 489V495H620.098V483.192L621.57 483.032V487.736C622.231 486.829 623.063 486.376 624.066 486.376ZM632.641 486.376C633.825 486.376 634.742 486.771 635.393 487.56C636.054 488.349 636.385 489.421 636.385 490.776C636.385 491.651 636.236 492.424 635.937 493.096C635.638 493.757 635.206 494.275 634.641 494.648C634.076 495.011 633.404 495.192 632.625 495.192C631.441 495.192 630.518 494.797 629.857 494.008C629.196 493.219 628.865 492.147 628.865 490.792C628.865 489.917 629.014 489.149 629.313 488.488C629.612 487.816 630.044 487.299 630.609 486.936C631.174 486.563 631.852 486.376 632.641 486.376ZM632.641 487.56C631.18 487.56 630.449 488.637 630.449 490.792C630.449 492.936 631.174 494.008 632.625 494.008C634.076 494.008 634.801 492.931 634.801 490.776C634.801 488.632 634.081 487.56 632.641 487.56ZM642.481 486.376C642.78 486.376 643.057 486.408 643.313 486.472L643.041 487.912C642.785 487.848 642.54 487.816 642.305 487.816C641.782 487.816 641.361 488.008 641.041 488.392C640.721 488.776 640.47 489.373 640.289 490.184V495H638.817V486.568H640.081L640.225 488.28C640.449 487.651 640.753 487.176 641.137 486.856C641.521 486.536 641.969 486.376 642.481 486.376ZM650.872 490.536C650.872 490.781 650.862 491.032 650.84 491.288H645.464C645.528 492.216 645.763 492.899 646.168 493.336C646.574 493.773 647.096 493.992 647.736 493.992C648.142 493.992 648.515 493.933 648.856 493.816C649.198 493.699 649.555 493.512 649.928 493.256L650.568 494.136C649.672 494.84 648.691 495.192 647.624 495.192C646.451 495.192 645.534 494.808 644.872 494.04C644.222 493.272 643.896 492.216 643.896 490.872C643.896 489.997 644.035 489.224 644.312 488.552C644.6 487.869 645.006 487.336 645.528 486.952C646.062 486.568 646.686 486.376 647.4 486.376C648.52 486.376 649.379 486.744 649.976 487.48C650.574 488.216 650.872 489.235 650.872 490.536ZM649.416 490.104C649.416 489.272 649.251 488.637 648.92 488.2C648.59 487.763 648.094 487.544 647.432 487.544C646.227 487.544 645.571 488.429 645.464 490.2H649.416V490.104ZM659.41 482.184V496.568H659.058V482.184H659.41ZM678.237 495H676.765L676.381 490.024C676.221 488.072 676.131 486.573 676.109 485.528L673.725 493.752H672.301L669.789 485.512C669.789 486.845 669.72 488.387 669.581 490.136L669.213 495H667.773L668.685 483.976H670.733L673.053 491.992L675.261 483.976H677.325L678.237 495ZM686.434 493.032C686.434 493.373 686.493 493.629 686.61 493.8C686.728 493.96 686.904 494.083 687.138 494.168L686.802 495.192C686.365 495.139 686.013 495.016 685.746 494.824C685.48 494.632 685.282 494.333 685.154 493.928C684.589 494.771 683.752 495.192 682.642 495.192C681.81 495.192 681.154 494.957 680.674 494.488C680.194 494.019 679.954 493.405 679.954 492.648C679.954 491.752 680.274 491.064 680.914 490.584C681.565 490.104 682.482 489.864 683.666 489.864H684.962V489.24C684.962 488.643 684.818 488.216 684.53 487.96C684.242 487.704 683.8 487.576 683.202 487.576C682.584 487.576 681.826 487.725 680.93 488.024L680.562 486.952C681.608 486.568 682.578 486.376 683.474 486.376C684.466 486.376 685.208 486.621 685.698 487.112C686.189 487.592 686.434 488.28 686.434 489.176V493.032ZM682.978 494.088C683.821 494.088 684.482 493.651 684.962 492.776V490.84H683.858C682.301 490.84 681.522 491.416 681.522 492.568C681.522 493.069 681.645 493.448 681.89 493.704C682.136 493.96 682.498 494.088 682.978 494.088ZM690.981 495.192C690.437 495.192 690.005 495.032 689.685 494.712C689.376 494.381 689.221 493.923 689.221 493.336V483.176L690.693 483V493.304C690.693 493.539 690.731 493.709 690.805 493.816C690.891 493.923 691.029 493.976 691.221 493.976C691.424 493.976 691.605 493.944 691.765 493.88L692.149 494.904C691.797 495.096 691.408 495.192 690.981 495.192ZM695.461 486.568V495H693.989V486.568H695.461ZM694.709 482.52C695.018 482.52 695.269 482.616 695.461 482.808C695.653 483 695.749 483.24 695.749 483.528C695.749 483.816 695.653 484.056 695.461 484.248C695.269 484.429 695.018 484.52 694.709 484.52C694.41 484.52 694.165 484.429 693.973 484.248C693.781 484.056 693.685 483.816 693.685 483.528C693.685 483.24 693.781 483 693.973 482.808C694.165 482.616 694.41 482.52 694.709 482.52ZM702.36 486.376C703.32 486.376 704.083 486.765 704.648 487.544C705.214 488.312 705.496 489.389 705.496 490.776C705.496 491.651 705.363 492.424 705.096 493.096C704.83 493.757 704.446 494.275 703.944 494.648C703.443 495.011 702.856 495.192 702.184 495.192C701.299 495.192 700.552 494.819 699.944 494.072L699.8 495H698.504V483.176L699.976 483V487.624C700.584 486.792 701.379 486.376 702.36 486.376ZM701.832 494.024C702.483 494.024 702.99 493.763 703.352 493.24C703.726 492.707 703.912 491.885 703.912 490.776C703.912 489.635 703.742 488.813 703.4 488.312C703.059 487.8 702.574 487.544 701.944 487.544C701.198 487.544 700.542 487.981 699.976 488.856V492.888C700.2 493.24 700.472 493.517 700.792 493.72C701.123 493.923 701.47 494.024 701.832 494.024ZM714.276 495H713.012L712.9 493.688C712.58 494.211 712.212 494.595 711.796 494.84C711.38 495.075 710.874 495.192 710.276 495.192C709.54 495.192 708.964 494.968 708.548 494.52C708.132 494.072 707.924 493.437 707.924 492.616V486.568H709.396V492.456C709.396 493.032 709.498 493.443 709.7 493.688C709.903 493.923 710.234 494.04 710.692 494.04C711.514 494.04 712.218 493.555 712.804 492.584V486.568H714.276V495ZM717.701 492.968C718.021 492.968 718.288 493.075 718.501 493.288C718.714 493.501 718.821 493.763 718.821 494.072C718.821 494.403 718.725 494.781 718.533 495.208L717.461 497.656H716.405L717.045 495C716.906 494.893 716.794 494.76 716.709 494.6C716.634 494.44 716.597 494.264 716.597 494.072C716.597 493.763 716.704 493.501 716.917 493.288C717.13 493.075 717.392 492.968 717.701 492.968ZM729.331 483.784C729.992 483.784 730.547 483.869 730.995 484.04C731.454 484.211 731.918 484.488 732.387 484.872L731.555 485.848C730.883 485.304 730.174 485.032 729.427 485.032C728.51 485.032 727.768 485.384 727.203 486.088C726.648 486.792 726.371 487.923 726.371 489.48C726.371 490.995 726.648 492.115 727.203 492.84C727.758 493.555 728.494 493.912 729.411 493.912C729.88 493.912 730.291 493.832 730.643 493.672C730.995 493.512 731.368 493.288 731.763 493L732.515 493.96C732.174 494.312 731.736 494.605 731.203 494.84C730.67 495.075 730.056 495.192 729.363 495.192C728.467 495.192 727.667 494.973 726.963 494.536C726.27 494.088 725.726 493.437 725.331 492.584C724.947 491.72 724.755 490.685 724.755 489.48C724.755 488.275 724.958 487.245 725.363 486.392C725.768 485.528 726.318 484.877 727.011 484.44C727.704 484.003 728.478 483.784 729.331 483.784ZM740.3 495L739.468 492.232H735.292L734.46 495H732.924L736.46 483.976H738.38L741.9 495H740.3ZM735.66 491H739.1L737.388 485.24L735.66 491Z" fill="white"/>
<path d="M598.378 75.784C599.039 75.784 599.594 75.8693 600.042 76.04C600.501 76.2107 600.965 76.488 601.434 76.872L600.602 77.848C599.93 77.304 599.221 77.032 598.474 77.032C597.557 77.032 596.815 77.384 596.25 78.088C595.695 78.792 595.418 79.9227 595.418 81.48C595.418 82.9947 595.695 84.1147 596.25 84.84C596.805 85.5547 597.541 85.912 598.458 85.912C598.927 85.912 599.338 85.832 599.69 85.672C600.042 85.512 600.415 85.288 600.81 85L601.562 85.96C601.221 86.312 600.783 86.6053 600.25 86.84C599.717 87.0747 599.103 87.192 598.41 87.192C597.514 87.192 596.714 86.9733 596.01 86.536C595.317 86.088 594.773 85.4373 594.378 84.584C593.994 83.72 593.802 82.6853 593.802 81.48C593.802 80.2747 594.005 79.2453 594.41 78.392C594.815 77.528 595.365 76.8773 596.058 76.44C596.751 76.0027 597.525 75.784 598.378 75.784ZM609.401 87H608.137L608.025 85.688C607.705 86.2107 607.337 86.5947 606.921 86.84C606.505 87.0747 605.999 87.192 605.401 87.192C604.665 87.192 604.089 86.968 603.673 86.52C603.257 86.072 603.049 85.4373 603.049 84.616V78.568H604.521V84.456C604.521 85.032 604.623 85.4427 604.825 85.688C605.028 85.9227 605.359 86.04 605.817 86.04C606.639 86.04 607.343 85.5547 607.929 84.584V78.568H609.401V87ZM616.106 78.376C616.405 78.376 616.682 78.408 616.938 78.472L616.666 79.912C616.41 79.848 616.165 79.816 615.93 79.816C615.407 79.816 614.986 80.008 614.666 80.392C614.346 80.776 614.095 81.3733 613.914 82.184V87H612.442V78.568H613.706L613.85 80.28C614.074 79.6507 614.378 79.176 614.762 78.856C615.146 78.536 615.594 78.376 616.106 78.376ZM622.278 78.376C622.576 78.376 622.854 78.408 623.11 78.472L622.838 79.912C622.582 79.848 622.336 79.816 622.102 79.816C621.579 79.816 621.158 80.008 620.838 80.392C620.518 80.776 620.267 81.3733 620.086 82.184V87H618.614V78.568H619.878L620.022 80.28C620.246 79.6507 620.55 79.176 620.934 78.856C621.318 78.536 621.766 78.376 622.278 78.376ZM630.669 82.536C630.669 82.7813 630.659 83.032 630.637 83.288H625.261C625.325 84.216 625.56 84.8987 625.965 85.336C626.371 85.7733 626.893 85.992 627.533 85.992C627.939 85.992 628.312 85.9333 628.653 85.816C628.995 85.6987 629.352 85.512 629.725 85.256L630.365 86.136C629.469 86.84 628.488 87.192 627.421 87.192C626.248 87.192 625.331 86.808 624.669 86.04C624.019 85.272 623.693 84.216 623.693 82.872C623.693 81.9973 623.832 81.224 624.109 80.552C624.397 79.8693 624.803 79.336 625.325 78.952C625.859 78.568 626.483 78.376 627.197 78.376C628.317 78.376 629.176 78.744 629.773 79.48C630.371 80.216 630.669 81.2347 630.669 82.536ZM629.213 82.104C629.213 81.272 629.048 80.6373 628.717 80.2C628.387 79.7627 627.891 79.544 627.229 79.544C626.024 79.544 625.368 80.4293 625.261 82.2H629.213V82.104ZM636.988 78.376C637.756 78.376 638.353 78.6053 638.78 79.064C639.217 79.5227 639.436 80.152 639.436 80.952V87H637.964V81.16C637.964 80.5627 637.852 80.1413 637.628 79.896C637.404 79.6507 637.073 79.528 636.636 79.528C636.188 79.528 635.793 79.656 635.452 79.912C635.111 80.168 634.791 80.536 634.492 81.016V87H633.02V78.568H634.284L634.412 79.816C634.711 79.368 635.079 79.016 635.516 78.76C635.964 78.504 636.455 78.376 636.988 78.376ZM646.651 86.616C646.096 87 645.467 87.192 644.763 87.192C644.048 87.192 643.488 86.9893 643.083 86.584C642.688 86.168 642.491 85.5707 642.491 84.792V79.704H641.019V78.568H642.491V76.664L643.963 76.488V78.568H645.963L645.803 79.704H643.963V84.728C643.963 85.1653 644.038 85.4853 644.187 85.688C644.347 85.88 644.608 85.976 644.971 85.976C645.302 85.976 645.675 85.864 646.091 85.64L646.651 86.616ZM654.011 75.976V85.672H658.539L658.363 87H652.491V75.976H654.011ZM663.141 78.376C664.325 78.376 665.242 78.7707 665.893 79.56C666.554 80.3493 666.885 81.4213 666.885 82.776C666.885 83.6507 666.736 84.424 666.437 85.096C666.138 85.7573 665.706 86.2747 665.141 86.648C664.576 87.0107 663.904 87.192 663.125 87.192C661.941 87.192 661.018 86.7973 660.357 86.008C659.696 85.2187 659.365 84.1467 659.365 82.792C659.365 81.9173 659.514 81.1493 659.813 80.488C660.112 79.816 660.544 79.2987 661.109 78.936C661.674 78.5627 662.352 78.376 663.141 78.376ZM663.141 79.56C661.68 79.56 660.949 80.6373 660.949 82.792C660.949 84.936 661.674 86.008 663.125 86.008C664.576 86.008 665.301 84.9307 665.301 82.776C665.301 80.632 664.581 79.56 663.141 79.56ZM672.389 78.376C672.89 78.376 673.349 78.4507 673.765 78.6C674.181 78.7387 674.581 78.968 674.965 79.288L674.261 80.216C673.962 80.0027 673.669 79.848 673.381 79.752C673.104 79.6453 672.794 79.592 672.453 79.592C671.77 79.592 671.237 79.864 670.853 80.408C670.48 80.952 670.293 81.7573 670.293 82.824C670.293 83.8907 670.48 84.68 670.853 85.192C671.226 85.6933 671.76 85.944 672.453 85.944C672.784 85.944 673.088 85.896 673.365 85.8C673.642 85.6933 673.952 85.528 674.293 85.304L674.965 86.264C674.197 86.8827 673.338 87.192 672.389 87.192C671.248 87.192 670.346 86.808 669.685 86.04C669.034 85.272 668.709 84.2107 668.709 82.856C668.709 81.96 668.858 81.176 669.157 80.504C669.456 79.832 669.877 79.3093 670.421 78.936C670.976 78.5627 671.632 78.376 672.389 78.376ZM682.481 85.032C682.481 85.3733 682.54 85.6293 682.657 85.8C682.775 85.96 682.951 86.0827 683.185 86.168L682.849 87.192C682.412 87.1387 682.06 87.016 681.793 86.824C681.527 86.632 681.329 86.3333 681.201 85.928C680.636 86.7707 679.799 87.192 678.689 87.192C677.857 87.192 677.201 86.9573 676.721 86.488C676.241 86.0187 676.001 85.4053 676.001 84.648C676.001 83.752 676.321 83.064 676.961 82.584C677.612 82.104 678.529 81.864 679.713 81.864H681.009V81.24C681.009 80.6427 680.865 80.216 680.577 79.96C680.289 79.704 679.847 79.576 679.249 79.576C678.631 79.576 677.873 79.7253 676.977 80.024L676.609 78.952C677.655 78.568 678.625 78.376 679.521 78.376C680.513 78.376 681.255 78.6213 681.745 79.112C682.236 79.592 682.481 80.28 682.481 81.176V85.032ZM679.025 86.088C679.868 86.088 680.529 85.6507 681.009 84.776V82.84H679.905C678.348 82.84 677.569 83.416 677.569 84.568C677.569 85.0693 677.692 85.448 677.937 85.704C678.183 85.96 678.545 86.088 679.025 86.088ZM689.76 86.616C689.206 87 688.576 87.192 687.872 87.192C687.158 87.192 686.598 86.9893 686.192 86.584C685.798 86.168 685.6 85.5707 685.6 84.792V79.704H684.128V78.568H685.6V76.664L687.072 76.488V78.568H689.072L688.912 79.704H687.072V84.728C687.072 85.1653 687.147 85.4853 687.296 85.688C687.456 85.88 687.718 85.976 688.08 85.976C688.411 85.976 688.784 85.864 689.2 85.64L689.76 86.616ZM692.758 78.568V87H691.286V78.568H692.758ZM692.006 74.52C692.315 74.52 692.566 74.616 692.758 74.808C692.95 75 693.046 75.24 693.046 75.528C693.046 75.816 692.95 76.056 692.758 76.248C692.566 76.4293 692.315 76.52 692.006 76.52C691.707 76.52 691.462 76.4293 691.27 76.248C691.078 76.056 690.982 75.816 690.982 75.528C690.982 75.24 691.078 75 691.27 74.808C691.462 74.616 691.707 74.52 692.006 74.52ZM698.969 78.376C700.153 78.376 701.071 78.7707 701.721 79.56C702.383 80.3493 702.713 81.4213 702.713 82.776C702.713 83.6507 702.564 84.424 702.265 85.096C701.967 85.7573 701.535 86.2747 700.969 86.648C700.404 87.0107 699.732 87.192 698.953 87.192C697.769 87.192 696.847 86.7973 696.185 86.008C695.524 85.2187 695.193 84.1467 695.193 82.792C695.193 81.9173 695.343 81.1493 695.641 80.488C695.94 79.816 696.372 79.2987 696.937 78.936C697.503 78.5627 698.18 78.376 698.969 78.376ZM698.969 79.56C697.508 79.56 696.777 80.6373 696.777 82.792C696.777 84.936 697.503 86.008 698.953 86.008C700.404 86.008 701.129 84.9307 701.129 82.776C701.129 80.632 700.409 79.56 698.969 79.56ZM709.113 78.376C709.881 78.376 710.478 78.6053 710.905 79.064C711.342 79.5227 711.561 80.152 711.561 80.952V87H710.089V81.16C710.089 80.5627 709.977 80.1413 709.753 79.896C709.529 79.6507 709.198 79.528 708.761 79.528C708.313 79.528 707.918 79.656 707.577 79.912C707.236 80.168 706.916 80.536 706.617 81.016V87H705.145V78.568H706.409L706.537 79.816C706.836 79.368 707.204 79.016 707.641 78.76C708.089 78.504 708.58 78.376 709.113 78.376Z" fill="white"/>
</svg>
