<svg width="1001" height="496" viewBox="0 0 1001 496" fill="none" xmlns="http://www.w3.org/2000/svg">
<g opacity="0.29827">
<path d="M1008.08 163.448L443.182 -356.858V-747.19L28.1096 -770C24.9043 -762.456 4.36709 -740.714 7.57176 -728.596C11.43 -714.102 30.8387 -718.735 36.4776 -709.409C43.0661 -698.42 31.7291 -653.749 28.3457 -640.86C21.8759 -616.445 7.09676 -596.665 2.82235 -572.25C-4.35982 -531.263 10.1824 -534.53 37.7242 -508.927C84.141 -465.742 46.9244 -420.952 58.6176 -370.223C68.1146 -328.878 109.605 -307.554 124.8 -266.211C136.553 -234.37 152.697 -226.233 177.746 -202.947C177.153 -217.084 164.51 -258.785 188.253 -255.102C211.817 -251.478 202.736 -216.669 207.247 -202.115C211.045 -189.997 237.933 -165.761 215.616 -154.593C208.196 -150.91 187.066 -165.582 178.577 -169.503C184.572 -150.791 180.774 -131.367 190.271 -113.487C201.608 -92.162 213.835 -100.359 228.853 -88.7754C244.344 -76.8355 242.683 -63.1137 235.797 -45.0554C228.615 -26.2247 221.196 -29.1352 232.592 -6.44342C240.843 9.95119 254.85 30.7421 266.9 43.2164C273.904 50.4634 281.502 52.1267 288.506 61.3932C294.323 69.1155 292.067 79.2142 299.012 86.1638C310.883 98.1037 331.006 98.282 340.384 113.904C350.831 131.309 338.96 144.437 369.706 142.833C371.309 177.643 377.897 209.185 377.541 243.994C394.695 250.825 422.414 242.687 440.399 239.063C458.266 263.18 481.355 246.429 501.774 259.558C510.678 265.26 508.837 279.517 514.239 284.506C525.339 294.723 533.529 288.308 547.301 291.872C557.51 294.486 565.404 301.97 575.138 304.703C584.338 307.257 599.475 301.258 606.301 309.396C614.492 319.138 600.78 336.958 613.127 344.799C623.395 351.333 638.115 335.77 648.088 338.027C659.721 340.7 693.079 371.174 701.271 381.212C710.59 392.677 719.969 414.062 725.25 428.793C733.501 451.841 732.373 463.127 749.408 479.998C760.27 490.75 749.942 491.522 767.63 494.67C779.204 496.749 794.518 488.374 806.212 487.067C830.549 484.394 855.122 489.027 879.102 484.453C901.421 480.176 922.729 473.166 945.64 469.899C965.465 467.048 1000.37 469.246 1017.94 459.801C1036.99 449.643 1038.71 426.654 1011.17 430.932C1008.97 416.26 1018.77 396.003 1007.85 385.847C1023.04 365.056 1028.56 350.384 1030.93 324.959C1032 313.792 1032.48 301.436 1038 292.05C1043.4 282.783 1058.59 277.259 1061.56 269.299C1066.13 256.943 1058.83 251.419 1053.25 244.528C1049.69 240.073 1039.54 242.212 1036.63 238.291C1031.23 231.103 1036.57 223.678 1033.6 216.431C1024.94 195.462 1014.61 187.205 1008.08 163.444C1008.26 167.424 1008.44 171.463 1008.2 175.384" stroke="white" stroke-width="2" stroke-linecap="round" stroke-linejoin="round"/>
</g>
<path d="M727.266 87C718.698 110.381 738.766 118.586 754.827 133.868C759.586 138.396 760.04 145.878 755.031 150.403C744.258 160.134 703.415 145.977 706.006 158.806C708.682 172.055 624.239 136.232 625.796 137.5C606.796 130.5 586.296 135 599.796 158.806C606.711 171 603.175 182.857 604.296 192.5C606.796 214 545.5 161 511.796 177.5C476 198.5 487 202.5 461.5 208.5C445.5 210.5 447.5 213 404.5 211C382.5 209 364.796 225 364.796 225" stroke="white" stroke-width="2"/>
<path fill-rule="evenodd" clip-rule="evenodd" d="M364.5 231C368.09 231 371 228.09 371 224.5C371 220.91 368.09 218 364.5 218C360.91 218 358 220.91 358 224.5C358 228.09 360.91 231 364.5 231Z" fill="#4AF6CD"/>
<path fill-rule="evenodd" clip-rule="evenodd" d="M661 363C662.657 363 664 361.657 664 360C664 358.343 662.657 357 661 357C659.343 357 658 358.343 658 360C658 361.657 659.343 363 661 363Z" fill="#4AF6CD"/>
<path fill-rule="evenodd" clip-rule="evenodd" d="M574 323C575.657 323 577 321.657 577 320C577 318.343 575.657 317 574 317C572.343 317 571 318.343 571 320C571 321.657 572.343 323 574 323Z" fill="#4AF6CD"/>
<path fill-rule="evenodd" clip-rule="evenodd" d="M725 471C726.657 471 728 469.657 728 468C728 466.343 726.657 465 725 465C723.343 465 722 466.343 722 468C722 469.657 723.343 471 725 471Z" fill="#4AF6CD"/>
<path fill-rule="evenodd" clip-rule="evenodd" d="M729.5 91C733.09 91 736 88.0899 736 84.5C736 80.9101 733.09 78 729.5 78C725.91 78 723 80.9101 723 84.5C723 88.0899 725.91 91 729.5 91Z" fill="#4AF6CD"/>
<path d="M282.359 268H280.327L275.847 258.64C275.911 259.376 275.959 260.059 275.991 260.688C276.034 261.307 276.055 262.059 276.055 262.944V268H274.631V256.976H276.615L281.143 266.352C281.111 266.075 281.069 265.589 281.015 264.896C280.962 264.203 280.935 263.568 280.935 262.992V256.976H282.359V268ZM288.641 259.376C289.825 259.376 290.742 259.771 291.393 260.56C292.054 261.349 292.385 262.421 292.385 263.776C292.385 264.651 292.236 265.424 291.937 266.096C291.638 266.757 291.206 267.275 290.641 267.648C290.076 268.011 289.404 268.192 288.625 268.192C287.441 268.192 286.518 267.797 285.857 267.008C285.196 266.219 284.865 265.147 284.865 263.792C284.865 262.917 285.014 262.149 285.313 261.488C285.612 260.816 286.044 260.299 286.609 259.936C287.174 259.563 287.852 259.376 288.641 259.376ZM288.641 260.56C287.18 260.56 286.449 261.637 286.449 263.792C286.449 265.936 287.174 267.008 288.625 267.008C290.076 267.008 290.801 265.931 290.801 263.776C290.801 261.632 290.081 260.56 288.641 260.56ZM298.481 259.376C298.78 259.376 299.057 259.408 299.313 259.472L299.041 260.912C298.785 260.848 298.54 260.816 298.305 260.816C297.782 260.816 297.361 261.008 297.041 261.392C296.721 261.776 296.47 262.373 296.289 263.184V268H294.817V259.568H296.081L296.225 261.28C296.449 260.651 296.753 260.176 297.137 259.856C297.521 259.536 297.969 259.376 298.481 259.376ZM305.245 267.616C304.69 268 304.061 268.192 303.357 268.192C302.642 268.192 302.082 267.989 301.677 267.584C301.282 267.168 301.085 266.571 301.085 265.792V260.704H299.613V259.568H301.085V257.664L302.557 257.488V259.568H304.557L304.397 260.704H302.557V265.728C302.557 266.165 302.631 266.485 302.781 266.688C302.941 266.88 303.202 266.976 303.565 266.976C303.895 266.976 304.269 266.864 304.685 266.64L305.245 267.616ZM310.738 259.376C311.506 259.376 312.103 259.605 312.53 260.064C312.967 260.523 313.186 261.152 313.186 261.952V268H311.714V262.16C311.714 261.563 311.597 261.141 311.362 260.896C311.138 260.651 310.807 260.528 310.37 260.528C309.933 260.528 309.543 260.656 309.202 260.912C308.861 261.168 308.541 261.531 308.242 262V268H306.77V256.192L308.242 256.032V260.736C308.903 259.829 309.735 259.376 310.738 259.376ZM323.179 256.784C323.915 256.784 324.545 256.891 325.067 257.104C325.59 257.307 326.097 257.627 326.587 258.064L325.755 258.992C325.339 258.661 324.929 258.421 324.523 258.272C324.129 258.112 323.702 258.032 323.243 258.032C322.667 258.032 322.193 258.165 321.819 258.432C321.446 258.699 321.259 259.088 321.259 259.6C321.259 259.92 321.323 260.192 321.451 260.416C321.579 260.629 321.814 260.827 322.155 261.008C322.507 261.189 323.014 261.381 323.675 261.584C324.369 261.797 324.945 262.027 325.403 262.272C325.862 262.517 326.23 262.859 326.507 263.296C326.795 263.723 326.939 264.267 326.939 264.928C326.939 265.568 326.779 266.133 326.459 266.624C326.15 267.115 325.697 267.499 325.099 267.776C324.513 268.053 323.814 268.192 323.003 268.192C321.478 268.192 320.23 267.717 319.259 266.768L320.091 265.84C320.539 266.203 320.993 266.48 321.451 266.672C321.91 266.853 322.422 266.944 322.987 266.944C323.67 266.944 324.235 266.779 324.683 266.448C325.131 266.107 325.355 265.616 325.355 264.976C325.355 264.613 325.286 264.315 325.147 264.08C325.009 263.835 324.769 263.616 324.427 263.424C324.097 263.232 323.611 263.04 322.971 262.848C321.841 262.507 321.014 262.096 320.491 261.616C319.969 261.136 319.707 260.485 319.707 259.664C319.707 259.109 319.851 258.613 320.139 258.176C320.438 257.739 320.849 257.397 321.371 257.152C321.905 256.907 322.507 256.784 323.179 256.784ZM333.066 259.376C333.834 259.376 334.431 259.605 334.858 260.064C335.295 260.523 335.514 261.152 335.514 261.952V268H334.042V262.16C334.042 261.563 333.925 261.141 333.69 260.896C333.466 260.651 333.135 260.528 332.698 260.528C332.261 260.528 331.871 260.656 331.53 260.912C331.189 261.168 330.869 261.531 330.57 262V268H329.098V256.192L330.57 256.032V260.736C331.231 259.829 332.063 259.376 333.066 259.376ZM341.641 259.376C342.825 259.376 343.742 259.771 344.393 260.56C345.054 261.349 345.385 262.421 345.385 263.776C345.385 264.651 345.236 265.424 344.937 266.096C344.638 266.757 344.206 267.275 343.641 267.648C343.076 268.011 342.404 268.192 341.625 268.192C340.441 268.192 339.518 267.797 338.857 267.008C338.196 266.219 337.865 265.147 337.865 263.792C337.865 262.917 338.014 262.149 338.313 261.488C338.612 260.816 339.044 260.299 339.609 259.936C340.174 259.563 340.852 259.376 341.641 259.376ZM341.641 260.56C340.18 260.56 339.449 261.637 339.449 263.792C339.449 265.936 340.174 267.008 341.625 267.008C343.076 267.008 343.801 265.931 343.801 263.776C343.801 261.632 343.081 260.56 341.641 260.56ZM351.481 259.376C351.78 259.376 352.057 259.408 352.313 259.472L352.041 260.912C351.785 260.848 351.54 260.816 351.305 260.816C350.782 260.816 350.361 261.008 350.041 261.392C349.721 261.776 349.47 262.373 349.289 263.184V268H347.817V259.568H349.081L349.225 261.28C349.449 260.651 349.753 260.176 350.137 259.856C350.521 259.536 350.969 259.376 351.481 259.376ZM359.872 263.536C359.872 263.781 359.862 264.032 359.84 264.288H354.464C354.528 265.216 354.763 265.899 355.168 266.336C355.574 266.773 356.096 266.992 356.736 266.992C357.142 266.992 357.515 266.933 357.856 266.816C358.198 266.699 358.555 266.512 358.928 266.256L359.568 267.136C358.672 267.84 357.691 268.192 356.624 268.192C355.451 268.192 354.534 267.808 353.872 267.04C353.222 266.272 352.896 265.216 352.896 263.872C352.896 262.997 353.035 262.224 353.312 261.552C353.6 260.869 354.006 260.336 354.528 259.952C355.062 259.568 355.686 259.376 356.4 259.376C357.52 259.376 358.379 259.744 358.976 260.48C359.574 261.216 359.872 262.235 359.872 263.536ZM358.416 263.104C358.416 262.272 358.251 261.637 357.92 261.2C357.59 260.763 357.094 260.544 356.432 260.544C355.227 260.544 354.571 261.429 354.464 263.2H358.416V263.104ZM368.41 255.184V269.568H368.058V255.184H368.41ZM387.237 268H385.765L385.381 263.024C385.221 261.072 385.131 259.573 385.109 258.528L382.725 266.752H381.301L378.789 258.512C378.789 259.845 378.72 261.387 378.581 263.136L378.213 268H376.773L377.685 256.976H379.733L382.053 264.992L384.261 256.976H386.325L387.237 268ZM395.434 266.032C395.434 266.373 395.493 266.629 395.61 266.8C395.728 266.96 395.904 267.083 396.138 267.168L395.802 268.192C395.365 268.139 395.013 268.016 394.746 267.824C394.48 267.632 394.282 267.333 394.154 266.928C393.589 267.771 392.752 268.192 391.642 268.192C390.81 268.192 390.154 267.957 389.674 267.488C389.194 267.019 388.954 266.405 388.954 265.648C388.954 264.752 389.274 264.064 389.914 263.584C390.565 263.104 391.482 262.864 392.666 262.864H393.962V262.24C393.962 261.643 393.818 261.216 393.53 260.96C393.242 260.704 392.8 260.576 392.202 260.576C391.584 260.576 390.826 260.725 389.93 261.024L389.562 259.952C390.608 259.568 391.578 259.376 392.474 259.376C393.466 259.376 394.208 259.621 394.698 260.112C395.189 260.592 395.434 261.28 395.434 262.176V266.032ZM391.978 267.088C392.821 267.088 393.482 266.651 393.962 265.776V263.84H392.858C391.301 263.84 390.522 264.416 390.522 265.568C390.522 266.069 390.645 266.448 390.89 266.704C391.136 266.96 391.498 267.088 391.978 267.088ZM399.981 268.192C399.437 268.192 399.005 268.032 398.685 267.712C398.376 267.381 398.221 266.923 398.221 266.336V256.176L399.693 256V266.304C399.693 266.539 399.731 266.709 399.805 266.816C399.891 266.923 400.029 266.976 400.221 266.976C400.424 266.976 400.605 266.944 400.765 266.88L401.149 267.904C400.797 268.096 400.408 268.192 399.981 268.192ZM404.461 259.568V268H402.989V259.568H404.461ZM403.709 255.52C404.018 255.52 404.269 255.616 404.461 255.808C404.653 256 404.749 256.24 404.749 256.528C404.749 256.816 404.653 257.056 404.461 257.248C404.269 257.429 404.018 257.52 403.709 257.52C403.41 257.52 403.165 257.429 402.973 257.248C402.781 257.056 402.685 256.816 402.685 256.528C402.685 256.24 402.781 256 402.973 255.808C403.165 255.616 403.41 255.52 403.709 255.52ZM411.36 259.376C412.32 259.376 413.083 259.765 413.648 260.544C414.214 261.312 414.496 262.389 414.496 263.776C414.496 264.651 414.363 265.424 414.096 266.096C413.83 266.757 413.446 267.275 412.944 267.648C412.443 268.011 411.856 268.192 411.184 268.192C410.299 268.192 409.552 267.819 408.944 267.072L408.8 268H407.504V256.176L408.976 256V260.624C409.584 259.792 410.379 259.376 411.36 259.376ZM410.832 267.024C411.483 267.024 411.99 266.763 412.352 266.24C412.726 265.707 412.912 264.885 412.912 263.776C412.912 262.635 412.742 261.813 412.4 261.312C412.059 260.8 411.574 260.544 410.944 260.544C410.198 260.544 409.542 260.981 408.976 261.856V265.888C409.2 266.24 409.472 266.517 409.792 266.72C410.123 266.923 410.47 267.024 410.832 267.024ZM423.276 268H422.012L421.9 266.688C421.58 267.211 421.212 267.595 420.796 267.84C420.38 268.075 419.874 268.192 419.276 268.192C418.54 268.192 417.964 267.968 417.548 267.52C417.132 267.072 416.924 266.437 416.924 265.616V259.568H418.396V265.456C418.396 266.032 418.498 266.443 418.7 266.688C418.903 266.923 419.234 267.04 419.692 267.04C420.514 267.04 421.218 266.555 421.804 265.584V259.568H423.276V268ZM426.701 265.968C427.021 265.968 427.288 266.075 427.501 266.288C427.714 266.501 427.821 266.763 427.821 267.072C427.821 267.403 427.725 267.781 427.533 268.208L426.461 270.656H425.405L426.045 268C425.906 267.893 425.794 267.76 425.709 267.6C425.634 267.44 425.597 267.264 425.597 267.072C425.597 266.763 425.704 266.501 425.917 266.288C426.13 266.075 426.392 265.968 426.701 265.968ZM438.331 256.784C438.992 256.784 439.547 256.869 439.995 257.04C440.454 257.211 440.918 257.488 441.387 257.872L440.555 258.848C439.883 258.304 439.174 258.032 438.427 258.032C437.51 258.032 436.768 258.384 436.203 259.088C435.648 259.792 435.371 260.923 435.371 262.48C435.371 263.995 435.648 265.115 436.203 265.84C436.758 266.555 437.494 266.912 438.411 266.912C438.88 266.912 439.291 266.832 439.643 266.672C439.995 266.512 440.368 266.288 440.763 266L441.515 266.96C441.174 267.312 440.736 267.605 440.203 267.84C439.67 268.075 439.056 268.192 438.363 268.192C437.467 268.192 436.667 267.973 435.963 267.536C435.27 267.088 434.726 266.437 434.331 265.584C433.947 264.72 433.755 263.685 433.755 262.48C433.755 261.275 433.958 260.245 434.363 259.392C434.768 258.528 435.318 257.877 436.011 257.44C436.704 257.003 437.478 256.784 438.331 256.784ZM449.3 268L448.468 265.232H444.292L443.46 268H441.924L445.46 256.976H447.38L450.9 268H449.3ZM444.66 264H448.1L446.388 258.24L444.66 264Z" fill="white"/>
<path d="M598.378 75.784C599.039 75.784 599.594 75.8693 600.042 76.04C600.501 76.2107 600.965 76.488 601.434 76.872L600.602 77.848C599.93 77.304 599.221 77.032 598.474 77.032C597.557 77.032 596.815 77.384 596.25 78.088C595.695 78.792 595.418 79.9227 595.418 81.48C595.418 82.9947 595.695 84.1147 596.25 84.84C596.805 85.5547 597.541 85.912 598.458 85.912C598.927 85.912 599.338 85.832 599.69 85.672C600.042 85.512 600.415 85.288 600.81 85L601.562 85.96C601.221 86.312 600.783 86.6053 600.25 86.84C599.717 87.0747 599.103 87.192 598.41 87.192C597.514 87.192 596.714 86.9733 596.01 86.536C595.317 86.088 594.773 85.4373 594.378 84.584C593.994 83.72 593.802 82.6853 593.802 81.48C593.802 80.2747 594.005 79.2453 594.41 78.392C594.815 77.528 595.365 76.8773 596.058 76.44C596.751 76.0027 597.525 75.784 598.378 75.784ZM609.401 87H608.137L608.025 85.688C607.705 86.2107 607.337 86.5947 606.921 86.84C606.505 87.0747 605.999 87.192 605.401 87.192C604.665 87.192 604.089 86.968 603.673 86.52C603.257 86.072 603.049 85.4373 603.049 84.616V78.568H604.521V84.456C604.521 85.032 604.623 85.4427 604.825 85.688C605.028 85.9227 605.359 86.04 605.817 86.04C606.639 86.04 607.343 85.5547 607.929 84.584V78.568H609.401V87ZM616.106 78.376C616.405 78.376 616.682 78.408 616.938 78.472L616.666 79.912C616.41 79.848 616.165 79.816 615.93 79.816C615.407 79.816 614.986 80.008 614.666 80.392C614.346 80.776 614.095 81.3733 613.914 82.184V87H612.442V78.568H613.706L613.85 80.28C614.074 79.6507 614.378 79.176 614.762 78.856C615.146 78.536 615.594 78.376 616.106 78.376ZM622.278 78.376C622.576 78.376 622.854 78.408 623.11 78.472L622.838 79.912C622.582 79.848 622.336 79.816 622.102 79.816C621.579 79.816 621.158 80.008 620.838 80.392C620.518 80.776 620.267 81.3733 620.086 82.184V87H618.614V78.568H619.878L620.022 80.28C620.246 79.6507 620.55 79.176 620.934 78.856C621.318 78.536 621.766 78.376 622.278 78.376ZM630.669 82.536C630.669 82.7813 630.659 83.032 630.637 83.288H625.261C625.325 84.216 625.56 84.8987 625.965 85.336C626.371 85.7733 626.893 85.992 627.533 85.992C627.939 85.992 628.312 85.9333 628.653 85.816C628.995 85.6987 629.352 85.512 629.725 85.256L630.365 86.136C629.469 86.84 628.488 87.192 627.421 87.192C626.248 87.192 625.331 86.808 624.669 86.04C624.019 85.272 623.693 84.216 623.693 82.872C623.693 81.9973 623.832 81.224 624.109 80.552C624.397 79.8693 624.803 79.336 625.325 78.952C625.859 78.568 626.483 78.376 627.197 78.376C628.317 78.376 629.176 78.744 629.773 79.48C630.371 80.216 630.669 81.2347 630.669 82.536ZM629.213 82.104C629.213 81.272 629.048 80.6373 628.717 80.2C628.387 79.7627 627.891 79.544 627.229 79.544C626.024 79.544 625.368 80.4293 625.261 82.2H629.213V82.104ZM636.988 78.376C637.756 78.376 638.353 78.6053 638.78 79.064C639.217 79.5227 639.436 80.152 639.436 80.952V87H637.964V81.16C637.964 80.5627 637.852 80.1413 637.628 79.896C637.404 79.6507 637.073 79.528 636.636 79.528C636.188 79.528 635.793 79.656 635.452 79.912C635.111 80.168 634.791 80.536 634.492 81.016V87H633.02V78.568H634.284L634.412 79.816C634.711 79.368 635.079 79.016 635.516 78.76C635.964 78.504 636.455 78.376 636.988 78.376ZM646.651 86.616C646.096 87 645.467 87.192 644.763 87.192C644.048 87.192 643.488 86.9893 643.083 86.584C642.688 86.168 642.491 85.5707 642.491 84.792V79.704H641.019V78.568H642.491V76.664L643.963 76.488V78.568H645.963L645.803 79.704H643.963V84.728C643.963 85.1653 644.038 85.4853 644.187 85.688C644.347 85.88 644.608 85.976 644.971 85.976C645.302 85.976 645.675 85.864 646.091 85.64L646.651 86.616ZM654.011 75.976V85.672H658.539L658.363 87H652.491V75.976H654.011ZM663.141 78.376C664.325 78.376 665.242 78.7707 665.893 79.56C666.554 80.3493 666.885 81.4213 666.885 82.776C666.885 83.6507 666.736 84.424 666.437 85.096C666.138 85.7573 665.706 86.2747 665.141 86.648C664.576 87.0107 663.904 87.192 663.125 87.192C661.941 87.192 661.018 86.7973 660.357 86.008C659.696 85.2187 659.365 84.1467 659.365 82.792C659.365 81.9173 659.514 81.1493 659.813 80.488C660.112 79.816 660.544 79.2987 661.109 78.936C661.674 78.5627 662.352 78.376 663.141 78.376ZM663.141 79.56C661.68 79.56 660.949 80.6373 660.949 82.792C660.949 84.936 661.674 86.008 663.125 86.008C664.576 86.008 665.301 84.9307 665.301 82.776C665.301 80.632 664.581 79.56 663.141 79.56ZM672.389 78.376C672.89 78.376 673.349 78.4507 673.765 78.6C674.181 78.7387 674.581 78.968 674.965 79.288L674.261 80.216C673.962 80.0027 673.669 79.848 673.381 79.752C673.104 79.6453 672.794 79.592 672.453 79.592C671.77 79.592 671.237 79.864 670.853 80.408C670.48 80.952 670.293 81.7573 670.293 82.824C670.293 83.8907 670.48 84.68 670.853 85.192C671.226 85.6933 671.76 85.944 672.453 85.944C672.784 85.944 673.088 85.896 673.365 85.8C673.642 85.6933 673.952 85.528 674.293 85.304L674.965 86.264C674.197 86.8827 673.338 87.192 672.389 87.192C671.248 87.192 670.346 86.808 669.685 86.04C669.034 85.272 668.709 84.2107 668.709 82.856C668.709 81.96 668.858 81.176 669.157 80.504C669.456 79.832 669.877 79.3093 670.421 78.936C670.976 78.5627 671.632 78.376 672.389 78.376ZM682.481 85.032C682.481 85.3733 682.54 85.6293 682.657 85.8C682.775 85.96 682.951 86.0827 683.185 86.168L682.849 87.192C682.412 87.1387 682.06 87.016 681.793 86.824C681.527 86.632 681.329 86.3333 681.201 85.928C680.636 86.7707 679.799 87.192 678.689 87.192C677.857 87.192 677.201 86.9573 676.721 86.488C676.241 86.0187 676.001 85.4053 676.001 84.648C676.001 83.752 676.321 83.064 676.961 82.584C677.612 82.104 678.529 81.864 679.713 81.864H681.009V81.24C681.009 80.6427 680.865 80.216 680.577 79.96C680.289 79.704 679.847 79.576 679.249 79.576C678.631 79.576 677.873 79.7253 676.977 80.024L676.609 78.952C677.655 78.568 678.625 78.376 679.521 78.376C680.513 78.376 681.255 78.6213 681.745 79.112C682.236 79.592 682.481 80.28 682.481 81.176V85.032ZM679.025 86.088C679.868 86.088 680.529 85.6507 681.009 84.776V82.84H679.905C678.348 82.84 677.569 83.416 677.569 84.568C677.569 85.0693 677.692 85.448 677.937 85.704C678.183 85.96 678.545 86.088 679.025 86.088ZM689.76 86.616C689.206 87 688.576 87.192 687.872 87.192C687.158 87.192 686.598 86.9893 686.192 86.584C685.798 86.168 685.6 85.5707 685.6 84.792V79.704H684.128V78.568H685.6V76.664L687.072 76.488V78.568H689.072L688.912 79.704H687.072V84.728C687.072 85.1653 687.147 85.4853 687.296 85.688C687.456 85.88 687.718 85.976 688.08 85.976C688.411 85.976 688.784 85.864 689.2 85.64L689.76 86.616ZM692.758 78.568V87H691.286V78.568H692.758ZM692.006 74.52C692.315 74.52 692.566 74.616 692.758 74.808C692.95 75 693.046 75.24 693.046 75.528C693.046 75.816 692.95 76.056 692.758 76.248C692.566 76.4293 692.315 76.52 692.006 76.52C691.707 76.52 691.462 76.4293 691.27 76.248C691.078 76.056 690.982 75.816 690.982 75.528C690.982 75.24 691.078 75 691.27 74.808C691.462 74.616 691.707 74.52 692.006 74.52ZM698.969 78.376C700.153 78.376 701.071 78.7707 701.721 79.56C702.383 80.3493 702.713 81.4213 702.713 82.776C702.713 83.6507 702.564 84.424 702.265 85.096C701.967 85.7573 701.535 86.2747 700.969 86.648C700.404 87.0107 699.732 87.192 698.953 87.192C697.769 87.192 696.847 86.7973 696.185 86.008C695.524 85.2187 695.193 84.1467 695.193 82.792C695.193 81.9173 695.343 81.1493 695.641 80.488C695.94 79.816 696.372 79.2987 696.937 78.936C697.503 78.5627 698.18 78.376 698.969 78.376ZM698.969 79.56C697.508 79.56 696.777 80.6373 696.777 82.792C696.777 84.936 697.503 86.008 698.953 86.008C700.404 86.008 701.129 84.9307 701.129 82.776C701.129 80.632 700.409 79.56 698.969 79.56ZM709.113 78.376C709.881 78.376 710.478 78.6053 710.905 79.064C711.342 79.5227 711.561 80.152 711.561 80.952V87H710.089V81.16C710.089 80.5627 709.977 80.1413 709.753 79.896C709.529 79.6507 709.198 79.528 708.761 79.528C708.313 79.528 707.918 79.656 707.577 79.912C707.236 80.168 706.916 80.536 706.617 81.016V87H705.145V78.568H706.409L706.537 79.816C706.836 79.368 707.204 79.016 707.641 78.76C708.089 78.504 708.58 78.376 709.113 78.376Z" fill="white"/>
</svg>
