<svg width="1001" height="496" viewBox="0 0 1001 496" fill="none" xmlns="http://www.w3.org/2000/svg">
<g opacity="0.29827">
<path d="M1008.08 163.448L443.182 -356.858V-747.19L28.1096 -770C24.9043 -762.456 4.36709 -740.714 7.57176 -728.596C11.43 -714.102 30.8387 -718.735 36.4776 -709.409C43.0661 -698.42 31.7291 -653.749 28.3457 -640.86C21.8759 -616.445 7.09676 -596.665 2.82235 -572.25C-4.35982 -531.263 10.1824 -534.53 37.7242 -508.927C84.141 -465.742 46.9244 -420.952 58.6176 -370.223C68.1146 -328.878 109.605 -307.554 124.8 -266.211C136.553 -234.37 152.697 -226.233 177.746 -202.947C177.153 -217.084 164.51 -258.785 188.253 -255.102C211.817 -251.478 202.736 -216.669 207.247 -202.115C211.045 -189.997 237.933 -165.761 215.616 -154.593C208.196 -150.91 187.066 -165.582 178.577 -169.503C184.572 -150.791 180.774 -131.367 190.271 -113.487C201.608 -92.162 213.835 -100.359 228.853 -88.7754C244.344 -76.8355 242.683 -63.1137 235.797 -45.0554C228.615 -26.2247 221.196 -29.1352 232.592 -6.44342C240.843 9.95119 254.85 30.7421 266.9 43.2164C273.904 50.4634 281.502 52.1267 288.506 61.3932C294.323 69.1155 292.067 79.2142 299.012 86.1638C310.883 98.1037 331.006 98.282 340.384 113.904C350.831 131.309 338.96 144.437 369.706 142.833C371.309 177.643 377.897 209.185 377.541 243.994C394.695 250.825 422.414 242.687 440.399 239.063C458.266 263.18 481.355 246.429 501.774 259.558C510.678 265.26 508.837 279.517 514.239 284.506C525.339 294.723 533.529 288.308 547.301 291.872C557.51 294.486 565.404 301.97 575.138 304.703C584.338 307.257 599.475 301.258 606.301 309.396C614.492 319.138 600.78 336.958 613.127 344.799C623.395 351.333 638.115 335.77 648.088 338.027C659.721 340.7 693.079 371.174 701.271 381.212C710.59 392.677 719.969 414.062 725.25 428.793C733.501 451.841 732.373 463.127 749.408 479.998C760.27 490.75 749.942 491.522 767.63 494.67C779.204 496.749 794.518 488.374 806.212 487.067C830.549 484.394 855.122 489.027 879.102 484.453C901.421 480.176 922.729 473.166 945.64 469.899C965.465 467.048 1000.37 469.246 1017.94 459.801C1036.99 449.643 1038.71 426.654 1011.17 430.932C1008.97 416.26 1018.77 396.003 1007.85 385.847C1023.04 365.056 1028.56 350.384 1030.93 324.959C1032 313.792 1032.48 301.436 1038 292.05C1043.4 282.783 1058.59 277.259 1061.56 269.299C1066.13 256.943 1058.83 251.419 1053.25 244.528C1049.69 240.073 1039.54 242.212 1036.63 238.291C1031.23 231.103 1036.57 223.678 1033.6 216.431C1024.94 195.462 1014.61 187.205 1008.08 163.444C1008.26 167.424 1008.44 171.463 1008.2 175.384" stroke="white" stroke-width="2" stroke-linecap="round" stroke-linejoin="round"/>
</g>
<path d="M727.47 87C718.902 110.381 738.97 118.586 755.031 133.868C759.79 138.396 760.244 145.878 755.235 150.403C744.463 160.134 703.62 145.977 706.21 158.806C708.886 172.055 743.417 190.592 744.974 191.86C758.64 202.992 763.091 231.235 755.564 246.719C750.208 257.737 714.698 254.023 703.528 250.354C630.38 226.326 706.21 270.5 678 270.5C671.71 269.929 627.5 250.354 643 270.5C657.5 282.561 707.412 317.372 709.5 321.583C716.419 335.539 671.835 315.655 663.5 334C660.943 339.629 680.699 346.937 678 352.5C675.886 356.857 661.94 355.249 661 360" stroke="white" stroke-width="2"/>
<path fill-rule="evenodd" clip-rule="evenodd" d="M660.5 366C664.09 366 667 363.09 667 359.5C667 355.91 664.09 353 660.5 353C656.91 353 654 355.91 654 359.5C654 363.09 656.91 366 660.5 366Z" fill="#4AF6CD"/>
<path fill-rule="evenodd" clip-rule="evenodd" d="M725 471C726.657 471 728 469.657 728 468C728 466.343 726.657 465 725 465C723.343 465 722 466.343 722 468C722 469.657 723.343 471 725 471Z" fill="#4AF6CD"/>
<path fill-rule="evenodd" clip-rule="evenodd" d="M365 228C366.657 228 368 226.657 368 225C368 223.343 366.657 222 365 222C363.343 222 362 223.343 362 225C362 226.657 363.343 228 365 228Z" fill="#4AF6CD"/>
<path fill-rule="evenodd" clip-rule="evenodd" d="M574 323C575.657 323 577 321.657 577 320C577 318.343 575.657 317 574 317C572.343 317 571 318.343 571 320C571 321.657 572.343 323 574 323Z" fill="#4AF6CD"/>
<path fill-rule="evenodd" clip-rule="evenodd" d="M729.5 91C733.09 91 736 88.0899 736 84.5C736 80.9101 733.09 78 729.5 78C725.91 78 723 80.9101 723 84.5C723 88.0899 725.91 91 729.5 91Z" fill="#4AF6CD"/>
<path d="M494.021 366.976L493.845 368.192H489.573V371.792H493.285V373.008H489.573V376.784H494.149V378H488.053V366.976H494.021ZM502.028 376.032C502.028 376.373 502.087 376.629 502.204 376.8C502.321 376.96 502.497 377.083 502.732 377.168L502.396 378.192C501.959 378.139 501.607 378.016 501.34 377.824C501.073 377.632 500.876 377.333 500.748 376.928C500.183 377.771 499.345 378.192 498.236 378.192C497.404 378.192 496.748 377.957 496.268 377.488C495.788 377.019 495.548 376.405 495.548 375.648C495.548 374.752 495.868 374.064 496.508 373.584C497.159 373.104 498.076 372.864 499.26 372.864H500.556V372.24C500.556 371.643 500.412 371.216 500.124 370.96C499.836 370.704 499.393 370.576 498.796 370.576C498.177 370.576 497.42 370.725 496.524 371.024L496.156 369.952C497.201 369.568 498.172 369.376 499.068 369.376C500.06 369.376 500.801 369.621 501.292 370.112C501.783 370.592 502.028 371.28 502.028 372.176V376.032ZM498.572 377.088C499.415 377.088 500.076 376.651 500.556 375.776V373.84H499.452C497.895 373.84 497.116 374.416 497.116 375.568C497.116 376.069 497.239 376.448 497.484 376.704C497.729 376.96 498.092 377.088 498.572 377.088ZM507.183 369.376C507.759 369.376 508.276 369.456 508.735 369.616C509.194 369.776 509.631 370.016 510.047 370.336L509.423 371.264C509.039 371.019 508.671 370.837 508.319 370.72C507.978 370.603 507.615 370.544 507.231 370.544C506.751 370.544 506.372 370.645 506.095 370.848C505.818 371.04 505.679 371.307 505.679 371.648C505.679 371.989 505.807 372.256 506.063 372.448C506.33 372.64 506.804 372.827 507.487 373.008C508.426 373.243 509.124 373.563 509.583 373.968C510.052 374.373 510.287 374.928 510.287 375.632C510.287 376.464 509.962 377.099 509.311 377.536C508.671 377.973 507.887 378.192 506.959 378.192C505.679 378.192 504.618 377.824 503.775 377.088L504.559 376.192C505.274 376.736 506.063 377.008 506.927 377.008C507.482 377.008 507.919 376.896 508.239 376.672C508.57 376.437 508.735 376.123 508.735 375.728C508.735 375.44 508.676 375.211 508.559 375.04C508.442 374.859 508.239 374.704 507.951 374.576C507.663 374.437 507.242 374.293 506.687 374.144C505.791 373.909 505.14 373.595 504.735 373.2C504.34 372.805 504.143 372.304 504.143 371.696C504.143 371.259 504.271 370.864 504.527 370.512C504.794 370.149 505.156 369.872 505.615 369.68C506.084 369.477 506.607 369.376 507.183 369.376ZM516.62 377.616C516.065 378 515.436 378.192 514.732 378.192C514.017 378.192 513.457 377.989 513.052 377.584C512.657 377.168 512.46 376.571 512.46 375.792V370.704H510.988V369.568H512.46V367.664L513.932 367.488V369.568H515.932L515.772 370.704H513.932V375.728C513.932 376.165 514.006 376.485 514.156 376.688C514.316 376.88 514.577 376.976 514.94 376.976C515.27 376.976 515.644 376.864 516.06 376.64L516.62 377.616ZM525.179 366.784C525.915 366.784 526.545 366.891 527.067 367.104C527.59 367.307 528.097 367.627 528.587 368.064L527.755 368.992C527.339 368.661 526.929 368.421 526.523 368.272C526.129 368.112 525.702 368.032 525.243 368.032C524.667 368.032 524.193 368.165 523.819 368.432C523.446 368.699 523.259 369.088 523.259 369.6C523.259 369.92 523.323 370.192 523.451 370.416C523.579 370.629 523.814 370.827 524.155 371.008C524.507 371.189 525.014 371.381 525.675 371.584C526.369 371.797 526.945 372.027 527.403 372.272C527.862 372.517 528.23 372.859 528.507 373.296C528.795 373.723 528.939 374.267 528.939 374.928C528.939 375.568 528.779 376.133 528.459 376.624C528.15 377.115 527.697 377.499 527.099 377.776C526.513 378.053 525.814 378.192 525.003 378.192C523.478 378.192 522.23 377.717 521.259 376.768L522.091 375.84C522.539 376.203 522.993 376.48 523.451 376.672C523.91 376.853 524.422 376.944 524.987 376.944C525.67 376.944 526.235 376.779 526.683 376.448C527.131 376.107 527.355 375.616 527.355 374.976C527.355 374.613 527.286 374.315 527.147 374.08C527.009 373.835 526.769 373.616 526.427 373.424C526.097 373.232 525.611 373.04 524.971 372.848C523.841 372.507 523.014 372.096 522.491 371.616C521.969 371.136 521.707 370.485 521.707 369.664C521.707 369.109 521.851 368.613 522.139 368.176C522.438 367.739 522.849 367.397 523.371 367.152C523.905 366.907 524.507 366.784 525.179 366.784ZM535.066 369.376C535.834 369.376 536.431 369.605 536.858 370.064C537.295 370.523 537.514 371.152 537.514 371.952V378H536.042V372.16C536.042 371.563 535.925 371.141 535.69 370.896C535.466 370.651 535.135 370.528 534.698 370.528C534.261 370.528 533.871 370.656 533.53 370.912C533.189 371.168 532.869 371.531 532.57 372V378H531.098V366.192L532.57 366.032V370.736C533.231 369.829 534.063 369.376 535.066 369.376ZM543.641 369.376C544.825 369.376 545.742 369.771 546.393 370.56C547.054 371.349 547.385 372.421 547.385 373.776C547.385 374.651 547.236 375.424 546.937 376.096C546.638 376.757 546.206 377.275 545.641 377.648C545.076 378.011 544.404 378.192 543.625 378.192C542.441 378.192 541.518 377.797 540.857 377.008C540.196 376.219 539.865 375.147 539.865 373.792C539.865 372.917 540.014 372.149 540.313 371.488C540.612 370.816 541.044 370.299 541.609 369.936C542.174 369.563 542.852 369.376 543.641 369.376ZM543.641 370.56C542.18 370.56 541.449 371.637 541.449 373.792C541.449 375.936 542.174 377.008 543.625 377.008C545.076 377.008 545.801 375.931 545.801 373.776C545.801 371.632 545.081 370.56 543.641 370.56ZM553.481 369.376C553.78 369.376 554.057 369.408 554.313 369.472L554.041 370.912C553.785 370.848 553.54 370.816 553.305 370.816C552.782 370.816 552.361 371.008 552.041 371.392C551.721 371.776 551.47 372.373 551.289 373.184V378H549.817V369.568H551.081L551.225 371.28C551.449 370.651 551.753 370.176 552.137 369.856C552.521 369.536 552.969 369.376 553.481 369.376ZM561.872 373.536C561.872 373.781 561.862 374.032 561.84 374.288H556.464C556.528 375.216 556.763 375.899 557.168 376.336C557.574 376.773 558.096 376.992 558.736 376.992C559.142 376.992 559.515 376.933 559.856 376.816C560.198 376.699 560.555 376.512 560.928 376.256L561.568 377.136C560.672 377.84 559.691 378.192 558.624 378.192C557.451 378.192 556.534 377.808 555.872 377.04C555.222 376.272 554.896 375.216 554.896 373.872C554.896 372.997 555.035 372.224 555.312 371.552C555.6 370.869 556.006 370.336 556.528 369.952C557.062 369.568 557.686 369.376 558.4 369.376C559.52 369.376 560.379 369.744 560.976 370.48C561.574 371.216 561.872 372.235 561.872 373.536ZM560.416 373.104C560.416 372.272 560.251 371.637 559.92 371.2C559.59 370.763 559.094 370.544 558.432 370.544C557.227 370.544 556.571 371.429 556.464 373.2H560.416V373.104ZM570.41 365.184V379.568H570.058V365.184H570.41ZM589.237 378H587.765L587.381 373.024C587.221 371.072 587.131 369.573 587.109 368.528L584.725 376.752H583.301L580.789 368.512C580.789 369.845 580.72 371.387 580.581 373.136L580.213 378H578.773L579.685 366.976H581.733L584.053 374.992L586.261 366.976H588.325L589.237 378ZM597.434 376.032C597.434 376.373 597.493 376.629 597.61 376.8C597.728 376.96 597.904 377.083 598.138 377.168L597.802 378.192C597.365 378.139 597.013 378.016 596.746 377.824C596.48 377.632 596.282 377.333 596.154 376.928C595.589 377.771 594.752 378.192 593.642 378.192C592.81 378.192 592.154 377.957 591.674 377.488C591.194 377.019 590.954 376.405 590.954 375.648C590.954 374.752 591.274 374.064 591.914 373.584C592.565 373.104 593.482 372.864 594.666 372.864H595.962V372.24C595.962 371.643 595.818 371.216 595.53 370.96C595.242 370.704 594.8 370.576 594.202 370.576C593.584 370.576 592.826 370.725 591.93 371.024L591.562 369.952C592.608 369.568 593.578 369.376 594.474 369.376C595.466 369.376 596.208 369.621 596.698 370.112C597.189 370.592 597.434 371.28 597.434 372.176V376.032ZM593.978 377.088C594.821 377.088 595.482 376.651 595.962 375.776V373.84H594.858C593.301 373.84 592.522 374.416 592.522 375.568C592.522 376.069 592.645 376.448 592.89 376.704C593.136 376.96 593.498 377.088 593.978 377.088ZM601.981 378.192C601.437 378.192 601.005 378.032 600.685 377.712C600.376 377.381 600.221 376.923 600.221 376.336V366.176L601.693 366V376.304C601.693 376.539 601.731 376.709 601.805 376.816C601.891 376.923 602.029 376.976 602.221 376.976C602.424 376.976 602.605 376.944 602.765 376.88L603.149 377.904C602.797 378.096 602.408 378.192 601.981 378.192ZM606.461 369.568V378H604.989V369.568H606.461ZM605.709 365.52C606.018 365.52 606.269 365.616 606.461 365.808C606.653 366 606.749 366.24 606.749 366.528C606.749 366.816 606.653 367.056 606.461 367.248C606.269 367.429 606.018 367.52 605.709 367.52C605.41 367.52 605.165 367.429 604.973 367.248C604.781 367.056 604.685 366.816 604.685 366.528C604.685 366.24 604.781 366 604.973 365.808C605.165 365.616 605.41 365.52 605.709 365.52ZM613.36 369.376C614.32 369.376 615.083 369.765 615.648 370.544C616.214 371.312 616.496 372.389 616.496 373.776C616.496 374.651 616.363 375.424 616.096 376.096C615.83 376.757 615.446 377.275 614.944 377.648C614.443 378.011 613.856 378.192 613.184 378.192C612.299 378.192 611.552 377.819 610.944 377.072L610.8 378H609.504V366.176L610.976 366V370.624C611.584 369.792 612.379 369.376 613.36 369.376ZM612.832 377.024C613.483 377.024 613.99 376.763 614.352 376.24C614.726 375.707 614.912 374.885 614.912 373.776C614.912 372.635 614.742 371.813 614.4 371.312C614.059 370.8 613.574 370.544 612.944 370.544C612.198 370.544 611.542 370.981 610.976 371.856V375.888C611.2 376.24 611.472 376.517 611.792 376.72C612.123 376.923 612.47 377.024 612.832 377.024ZM625.276 378H624.012L623.9 376.688C623.58 377.211 623.212 377.595 622.796 377.84C622.38 378.075 621.874 378.192 621.276 378.192C620.54 378.192 619.964 377.968 619.548 377.52C619.132 377.072 618.924 376.437 618.924 375.616V369.568H620.396V375.456C620.396 376.032 620.498 376.443 620.7 376.688C620.903 376.923 621.234 377.04 621.692 377.04C622.514 377.04 623.218 376.555 623.804 375.584V369.568H625.276V378ZM628.701 375.968C629.021 375.968 629.288 376.075 629.501 376.288C629.714 376.501 629.821 376.763 629.821 377.072C629.821 377.403 629.725 377.781 629.533 378.208L628.461 380.656H627.405L628.045 378C627.906 377.893 627.794 377.76 627.709 377.6C627.634 377.44 627.597 377.264 627.597 377.072C627.597 376.763 627.704 376.501 627.917 376.288C628.13 376.075 628.392 375.968 628.701 375.968ZM640.331 366.784C640.992 366.784 641.547 366.869 641.995 367.04C642.454 367.211 642.918 367.488 643.387 367.872L642.555 368.848C641.883 368.304 641.174 368.032 640.427 368.032C639.51 368.032 638.768 368.384 638.203 369.088C637.648 369.792 637.371 370.923 637.371 372.48C637.371 373.995 637.648 375.115 638.203 375.84C638.758 376.555 639.494 376.912 640.411 376.912C640.88 376.912 641.291 376.832 641.643 376.672C641.995 376.512 642.368 376.288 642.763 376L643.515 376.96C643.174 377.312 642.736 377.605 642.203 377.84C641.67 378.075 641.056 378.192 640.363 378.192C639.467 378.192 638.667 377.973 637.963 377.536C637.27 377.088 636.726 376.437 636.331 375.584C635.947 374.72 635.755 373.685 635.755 372.48C635.755 371.275 635.958 370.245 636.363 369.392C636.768 368.528 637.318 367.877 638.011 367.44C638.704 367.003 639.478 366.784 640.331 366.784ZM651.3 378L650.468 375.232H646.292L645.46 378H643.924L647.46 366.976H649.38L652.9 378H651.3ZM646.66 374H650.1L648.388 368.24L646.66 374Z" fill="white"/>
<path d="M598.378 75.784C599.039 75.784 599.594 75.8693 600.042 76.04C600.501 76.2107 600.965 76.488 601.434 76.872L600.602 77.848C599.93 77.304 599.221 77.032 598.474 77.032C597.557 77.032 596.815 77.384 596.25 78.088C595.695 78.792 595.418 79.9227 595.418 81.48C595.418 82.9947 595.695 84.1147 596.25 84.84C596.805 85.5547 597.541 85.912 598.458 85.912C598.927 85.912 599.338 85.832 599.69 85.672C600.042 85.512 600.415 85.288 600.81 85L601.562 85.96C601.221 86.312 600.783 86.6053 600.25 86.84C599.717 87.0747 599.103 87.192 598.41 87.192C597.514 87.192 596.714 86.9733 596.01 86.536C595.317 86.088 594.773 85.4373 594.378 84.584C593.994 83.72 593.802 82.6853 593.802 81.48C593.802 80.2747 594.005 79.2453 594.41 78.392C594.815 77.528 595.365 76.8773 596.058 76.44C596.751 76.0027 597.525 75.784 598.378 75.784ZM609.401 87H608.137L608.025 85.688C607.705 86.2107 607.337 86.5947 606.921 86.84C606.505 87.0747 605.999 87.192 605.401 87.192C604.665 87.192 604.089 86.968 603.673 86.52C603.257 86.072 603.049 85.4373 603.049 84.616V78.568H604.521V84.456C604.521 85.032 604.623 85.4427 604.825 85.688C605.028 85.9227 605.359 86.04 605.817 86.04C606.639 86.04 607.343 85.5547 607.929 84.584V78.568H609.401V87ZM616.106 78.376C616.405 78.376 616.682 78.408 616.938 78.472L616.666 79.912C616.41 79.848 616.165 79.816 615.93 79.816C615.407 79.816 614.986 80.008 614.666 80.392C614.346 80.776 614.095 81.3733 613.914 82.184V87H612.442V78.568H613.706L613.85 80.28C614.074 79.6507 614.378 79.176 614.762 78.856C615.146 78.536 615.594 78.376 616.106 78.376ZM622.278 78.376C622.576 78.376 622.854 78.408 623.11 78.472L622.838 79.912C622.582 79.848 622.336 79.816 622.102 79.816C621.579 79.816 621.158 80.008 620.838 80.392C620.518 80.776 620.267 81.3733 620.086 82.184V87H618.614V78.568H619.878L620.022 80.28C620.246 79.6507 620.55 79.176 620.934 78.856C621.318 78.536 621.766 78.376 622.278 78.376ZM630.669 82.536C630.669 82.7813 630.659 83.032 630.637 83.288H625.261C625.325 84.216 625.56 84.8987 625.965 85.336C626.371 85.7733 626.893 85.992 627.533 85.992C627.939 85.992 628.312 85.9333 628.653 85.816C628.995 85.6987 629.352 85.512 629.725 85.256L630.365 86.136C629.469 86.84 628.488 87.192 627.421 87.192C626.248 87.192 625.331 86.808 624.669 86.04C624.019 85.272 623.693 84.216 623.693 82.872C623.693 81.9973 623.832 81.224 624.109 80.552C624.397 79.8693 624.803 79.336 625.325 78.952C625.859 78.568 626.483 78.376 627.197 78.376C628.317 78.376 629.176 78.744 629.773 79.48C630.371 80.216 630.669 81.2347 630.669 82.536ZM629.213 82.104C629.213 81.272 629.048 80.6373 628.717 80.2C628.387 79.7627 627.891 79.544 627.229 79.544C626.024 79.544 625.368 80.4293 625.261 82.2H629.213V82.104ZM636.988 78.376C637.756 78.376 638.353 78.6053 638.78 79.064C639.217 79.5227 639.436 80.152 639.436 80.952V87H637.964V81.16C637.964 80.5627 637.852 80.1413 637.628 79.896C637.404 79.6507 637.073 79.528 636.636 79.528C636.188 79.528 635.793 79.656 635.452 79.912C635.111 80.168 634.791 80.536 634.492 81.016V87H633.02V78.568H634.284L634.412 79.816C634.711 79.368 635.079 79.016 635.516 78.76C635.964 78.504 636.455 78.376 636.988 78.376ZM646.651 86.616C646.096 87 645.467 87.192 644.763 87.192C644.048 87.192 643.488 86.9893 643.083 86.584C642.688 86.168 642.491 85.5707 642.491 84.792V79.704H641.019V78.568H642.491V76.664L643.963 76.488V78.568H645.963L645.803 79.704H643.963V84.728C643.963 85.1653 644.038 85.4853 644.187 85.688C644.347 85.88 644.608 85.976 644.971 85.976C645.302 85.976 645.675 85.864 646.091 85.64L646.651 86.616ZM654.011 75.976V85.672H658.539L658.363 87H652.491V75.976H654.011ZM663.141 78.376C664.325 78.376 665.242 78.7707 665.893 79.56C666.554 80.3493 666.885 81.4213 666.885 82.776C666.885 83.6507 666.736 84.424 666.437 85.096C666.138 85.7573 665.706 86.2747 665.141 86.648C664.576 87.0107 663.904 87.192 663.125 87.192C661.941 87.192 661.018 86.7973 660.357 86.008C659.696 85.2187 659.365 84.1467 659.365 82.792C659.365 81.9173 659.514 81.1493 659.813 80.488C660.112 79.816 660.544 79.2987 661.109 78.936C661.674 78.5627 662.352 78.376 663.141 78.376ZM663.141 79.56C661.68 79.56 660.949 80.6373 660.949 82.792C660.949 84.936 661.674 86.008 663.125 86.008C664.576 86.008 665.301 84.9307 665.301 82.776C665.301 80.632 664.581 79.56 663.141 79.56ZM672.389 78.376C672.89 78.376 673.349 78.4507 673.765 78.6C674.181 78.7387 674.581 78.968 674.965 79.288L674.261 80.216C673.962 80.0027 673.669 79.848 673.381 79.752C673.104 79.6453 672.794 79.592 672.453 79.592C671.77 79.592 671.237 79.864 670.853 80.408C670.48 80.952 670.293 81.7573 670.293 82.824C670.293 83.8907 670.48 84.68 670.853 85.192C671.226 85.6933 671.76 85.944 672.453 85.944C672.784 85.944 673.088 85.896 673.365 85.8C673.642 85.6933 673.952 85.528 674.293 85.304L674.965 86.264C674.197 86.8827 673.338 87.192 672.389 87.192C671.248 87.192 670.346 86.808 669.685 86.04C669.034 85.272 668.709 84.2107 668.709 82.856C668.709 81.96 668.858 81.176 669.157 80.504C669.456 79.832 669.877 79.3093 670.421 78.936C670.976 78.5627 671.632 78.376 672.389 78.376ZM682.481 85.032C682.481 85.3733 682.54 85.6293 682.657 85.8C682.775 85.96 682.951 86.0827 683.185 86.168L682.849 87.192C682.412 87.1387 682.06 87.016 681.793 86.824C681.527 86.632 681.329 86.3333 681.201 85.928C680.636 86.7707 679.799 87.192 678.689 87.192C677.857 87.192 677.201 86.9573 676.721 86.488C676.241 86.0187 676.001 85.4053 676.001 84.648C676.001 83.752 676.321 83.064 676.961 82.584C677.612 82.104 678.529 81.864 679.713 81.864H681.009V81.24C681.009 80.6427 680.865 80.216 680.577 79.96C680.289 79.704 679.847 79.576 679.249 79.576C678.631 79.576 677.873 79.7253 676.977 80.024L676.609 78.952C677.655 78.568 678.625 78.376 679.521 78.376C680.513 78.376 681.255 78.6213 681.745 79.112C682.236 79.592 682.481 80.28 682.481 81.176V85.032ZM679.025 86.088C679.868 86.088 680.529 85.6507 681.009 84.776V82.84H679.905C678.348 82.84 677.569 83.416 677.569 84.568C677.569 85.0693 677.692 85.448 677.937 85.704C678.183 85.96 678.545 86.088 679.025 86.088ZM689.76 86.616C689.206 87 688.576 87.192 687.872 87.192C687.158 87.192 686.598 86.9893 686.192 86.584C685.798 86.168 685.6 85.5707 685.6 84.792V79.704H684.128V78.568H685.6V76.664L687.072 76.488V78.568H689.072L688.912 79.704H687.072V84.728C687.072 85.1653 687.147 85.4853 687.296 85.688C687.456 85.88 687.718 85.976 688.08 85.976C688.411 85.976 688.784 85.864 689.2 85.64L689.76 86.616ZM692.758 78.568V87H691.286V78.568H692.758ZM692.006 74.52C692.315 74.52 692.566 74.616 692.758 74.808C692.95 75 693.046 75.24 693.046 75.528C693.046 75.816 692.95 76.056 692.758 76.248C692.566 76.4293 692.315 76.52 692.006 76.52C691.707 76.52 691.462 76.4293 691.27 76.248C691.078 76.056 690.982 75.816 690.982 75.528C690.982 75.24 691.078 75 691.27 74.808C691.462 74.616 691.707 74.52 692.006 74.52ZM698.969 78.376C700.153 78.376 701.071 78.7707 701.721 79.56C702.383 80.3493 702.713 81.4213 702.713 82.776C702.713 83.6507 702.564 84.424 702.265 85.096C701.967 85.7573 701.535 86.2747 700.969 86.648C700.404 87.0107 699.732 87.192 698.953 87.192C697.769 87.192 696.847 86.7973 696.185 86.008C695.524 85.2187 695.193 84.1467 695.193 82.792C695.193 81.9173 695.343 81.1493 695.641 80.488C695.94 79.816 696.372 79.2987 696.937 78.936C697.503 78.5627 698.18 78.376 698.969 78.376ZM698.969 79.56C697.508 79.56 696.777 80.6373 696.777 82.792C696.777 84.936 697.503 86.008 698.953 86.008C700.404 86.008 701.129 84.9307 701.129 82.776C701.129 80.632 700.409 79.56 698.969 79.56ZM709.113 78.376C709.881 78.376 710.478 78.6053 710.905 79.064C711.342 79.5227 711.561 80.152 711.561 80.952V87H710.089V81.16C710.089 80.5627 709.977 80.1413 709.753 79.896C709.529 79.6507 709.198 79.528 708.761 79.528C708.313 79.528 707.918 79.656 707.577 79.912C707.236 80.168 706.916 80.536 706.617 81.016V87H705.145V78.568H706.409L706.537 79.816C706.836 79.368 707.204 79.016 707.641 78.76C708.089 78.504 708.58 78.376 709.113 78.376Z" fill="white"/>
</svg>
